<?xml version="1.0" encoding="UTF-8"?>
<svg width="52px" height="52px" viewBox="0 0 52 52" version="1.1" xmlns="http://www.w3.org/2000/svg" xmlns:xlink="http://www.w3.org/1999/xlink">
    <!-- Generator: Sketch 45.2 (43514) - http://www.bohemiancoding.com/sketch -->
    <title>Icon-Devices</title>
    <desc>Created with Sketch.</desc>
    <defs></defs>
    <g id="Symbols" stroke="none" stroke-width="1" fill="none" fill-rule="evenodd">
        <g id="Icon-Devices">
            <g id="Page-1">
                <polygon id="Stroke-1" points="0.376811594 51.6231884 51.6231884 51.6231884 51.6231884 0.376811594 0.376811594 0.376811594"></polygon>
                <path d="M11.1428464,4.14492754 L40.8574551,4.14492754 C41.2727014,4.14492754 41.6110783,4.48255072 41.6110783,4.89855072 L41.6110783,47.1014493 C41.6110783,47.5174493 41.2727014,47.8550725 40.8574551,47.8550725 L11.1428464,47.8550725 C10.7260928,47.8550725 10.3892232,47.5174493 10.3892232,47.1014493 L10.3892232,4.89855072 C10.3892232,4.48255072 10.7260928,4.14492754 11.1428464,4.14492754 Z" id="Stroke-3" stroke="#62ABCD"></path>
                <path d="M14.2648058,8.3077913 L37.7356464,8.3077913 C38.1508928,8.3077913 38.4892696,8.64541449 38.4892696,9.06141449 L38.4892696,40.8567768 C38.4892696,41.2735304 38.1508928,41.6104 37.7356464,41.6104 L14.2648058,41.6104 C13.8488058,41.6104 13.5111826,41.2735304 13.5111826,40.8567768 L13.5111826,9.06141449 C13.5111826,8.64541449 13.8488058,8.3077913 14.2648058,8.3077913 Z" id="Stroke-4" stroke="#62ABCD"></path>
                <path d="M22.8777391,6.22643478 L29.1222609,6.22643478" id="Stroke-5" stroke="#62ABCD" stroke-linecap="round"></path>
                <path d="M27.0410551,44.7329623 C27.0410551,45.3079768 26.5745623,45.7737159 25.9995478,45.7737159 C25.4245333,45.7737159 24.9587942,45.3079768 24.9587942,44.7329623 C24.9587942,44.1579478 25.4245333,43.6922087 25.9995478,43.6922087 C26.5745623,43.6922087 27.0410551,44.1579478 27.0410551,44.7329623 Z" id="Stroke-6" stroke="#62ABCD" stroke-linecap="round"></path>
            </g>
        </g>
    </g>
</svg>