<?xml version="1.0" encoding="UTF-8"?>
<svg width="52px" height="52px" viewBox="0 0 52 52" version="1.1" xmlns="http://www.w3.org/2000/svg" xmlns:xlink="http://www.w3.org/1999/xlink">
    <!-- Generator: Sketch 45.2 (43514) - http://www.bohemiancoding.com/sketch -->
    <title>Icon-API</title>
    <desc>Created with Sketch.</desc>
    <defs></defs>
    <g id="Symbols" stroke="none" stroke-width="1" fill="none" fill-rule="evenodd">
        <g id="Icon-API" stroke="#57A1C6">
            <path d="M47.1016754,47.8551478 L4.89877681,47.8551478 C4.48202319,47.8551478 4.14515362,47.5175246 4.14515362,47.1015246 L4.14515362,5.65224928 C4.14515362,5.23624928 4.48202319,4.89862609 4.89877681,4.89862609 L47.1016754,4.89862609 C47.5176754,4.89862609 47.8552986,5.23624928 47.8552986,5.65224928 L47.8552986,47.1015246 C47.8552986,47.5175246 47.5176754,47.8551478 47.1016754,47.8551478 Z" id="Stroke-3"></path>
            <path d="M7.91326957,47.8551478 L7.91326957,32.4058725 C7.91326957,31.9898725 8.25013913,31.6522493 8.66689275,31.6522493 L12.8057913,31.6522493" id="Stroke-4"></path>
            <path d="M15.8204348,33.5363072 L13.5595652,33.5363072 C13.1428116,33.5363072 12.805942,33.1986841 12.805942,32.7826841 L12.805942,30.5218145 C12.805942,30.1058145 13.1428116,29.7681913 13.5595652,29.7681913 L15.8204348,29.7681913 C16.2364348,29.7681913 16.574058,30.1058145 16.574058,30.5218145 L16.574058,32.7826841 C16.574058,33.1986841 16.2364348,33.5363072 15.8204348,33.5363072 Z" id="Stroke-5"></path>
            <path d="M27.8637101,4.89402899 L27.8637101,23.3073043" id="Stroke-6"></path>
            <path d="M28.9941449,27.0754957 L26.7332754,27.0754957 C26.3165217,27.0754957 25.9796522,26.7378725 25.9796522,26.3218725 L25.9796522,24.0610029 C25.9796522,23.6450029 26.3165217,23.3073797 26.7332754,23.3073797 L28.9941449,23.3073797 C29.4101449,23.3073797 29.7477681,23.6450029 29.7477681,24.0610029 L29.7477681,26.3218725 C29.7477681,26.7378725 29.4101449,27.0754957 28.9941449,27.0754957 Z" id="Stroke-7"></path>
            <path d="M34.2695072,47.8001333 L34.2695072,18.3319594 C34.2695072,17.9152058 34.6063768,17.5783362 35.0231304,17.5783362 L40.3188406,17.5783362" id="Stroke-8"></path>
            <path d="M43.3335594,19.4623188 L41.0726899,19.4623188 C40.6559362,19.4623188 40.3190667,19.1246957 40.3190667,18.7086957 L40.3190667,16.4478261 C40.3190667,16.0318261 40.6559362,15.6942029 41.0726899,15.6942029 L43.3335594,15.6942029 C43.7495594,15.6942029 44.0871826,16.0318261 44.0871826,16.4478261 L44.0871826,18.7086957 C44.0871826,19.1246957 43.7495594,19.4623188 43.3335594,19.4623188 Z" id="Stroke-9"></path>
            <path d="M20.0845855,4.89862609 L20.0845855,15.4297565 C20.0845855,15.8465101 19.7477159,16.1833797 19.3309623,16.1833797 L16.2034261,16.1833797" id="Stroke-10"></path>
            <path d="M15.4495014,18.0677391 L13.1886319,18.0677391 C12.7718783,18.0677391 12.4350087,17.7301159 12.4350087,17.3141159 L12.4350087,15.0532464 C12.4350087,14.6372464 12.7718783,14.2996232 13.1886319,14.2996232 L15.4495014,14.2996232 C15.8655014,14.2996232 16.2031246,14.6372464 16.2031246,15.0532464 L16.2031246,17.3141159 C16.2031246,17.7301159 15.8655014,18.0677391 15.4495014,18.0677391 Z" id="Stroke-11"></path>
            <path d="M25.9111478,47.8001333 L25.9111478,39.8870899 C25.9111478,39.4710899 25.5735246,39.1334667 25.1575246,39.1334667 L23.8281333,39.1334667" id="Stroke-12"></path>
            <path d="M23.0748116,41.0175246 L20.813942,41.0175246 C20.3971884,41.0175246 20.0603188,40.6799014 20.0603188,40.2639014 L20.0603188,38.0030319 C20.0603188,37.5870319 20.3971884,37.2494087 20.813942,37.2494087 L23.0748116,37.2494087 C23.4908116,37.2494087 23.8284348,37.5870319 23.8284348,38.0030319 L23.8284348,40.2639014 C23.8284348,40.6799014 23.4908116,41.0175246 23.0748116,41.0175246 Z" id="Stroke-13"></path>
        </g>
    </g>
</svg>